<?xml version="1.0" encoding="UTF-8" standalone="no"?>
<!DOCTYPE svg PUBLIC "-//W3C//DTD SVG 1.1//EN" "http://www.w3.org/Graphics/SVG/1.1/DTD/svg11.dtd">
<svg version="1.1" xmlns="http://www.w3.org/2000/svg" xmlns:xlink="http://www.w3.org/1999/xlink" preserveAspectRatio="xMidYMid meet" viewBox="0 0 180 180" width="40" height="40"><defs><path d="M144.96 1.5C164.31 1.5 180 17.19 180 36.55C180 64.3 180 112.52 180 140.27C180 159.63 164.31 175.31 144.96 175.31C115.97 175.31 64.03 175.31 35.04 175.31C15.69 175.31 0 159.63 0 140.27C0 112.52 0 64.3 0 36.55C0 17.19 15.69 1.5 35.04 1.5C64.03 1.5 115.97 1.5 144.96 1.5Z" id="aj5dzhnxF"></path><path d="M22.55 107.67L92.01 161.87L161.47 107.67L134.94 19.98L49.08 19.98L22.55 107.67Z" id="bQ6E0RcEs"></path><path d="M42.32 101.41L92.01 141.47L141.7 101.41L122.72 36.6L61.3 36.6L42.32 101.41Z" id="a3fJJhvMUK"></path><path d="M87.08 54.52L73.3 91.03L87.08 91.03L77.23 117.4L114.64 80.89L94.96 80.89L108.74 54.52L87.08 54.52Z" id="a6Oiu6c4qE"></path></defs><g><g><g><g><use xlink:href="#aj5dzhnxF" opacity="1" fill="#302666" fill-opacity="1"></use></g><g><g><use xlink:href="#bQ6E0RcEs" opacity="1" fill="#a9b1c9" fill-opacity="1"></use></g><g><use xlink:href="#a3fJJhvMUK" opacity="1" fill="#3d1953" fill-opacity="1"></use></g><g><use xlink:href="#a6Oiu6c4qE" opacity="1" fill="#4b82dd" fill-opacity="1"></use></g></g></g></g></g></svg>